<mxfile host="app.diagrams.net" modified="2024-07-09T08:25:56.519Z" agent="Mozilla/5.0 (Windows NT 10.0; Win64; x64) AppleWebKit/537.36 (KHTML, like Gecko) Chrome/125.0.0.0 Safari/537.36 Edg/125.0.0.0" etag="IY_b72JFQNJL2vPD1hJT" version="24.6.3" type="onedrive">
  <diagram name="Page-1" id="74e2e168-ea6b-b213-b513-2b3c1d86103e">
    <mxGraphModel grid="1" page="1" gridSize="10" guides="1" tooltips="1" connect="1" arrows="1" fold="1" pageScale="1" pageWidth="1100" pageHeight="850" background="none" math="0" shadow="0">
      <root>
        <mxCell id="0" />
        <mxCell id="1" parent="0" />
        <mxCell id="77e6c97f196da883-1" value="ProximiLink" style="swimlane;html=1;childLayout=stackLayout;startSize=20;rounded=0;shadow=0;labelBackgroundColor=none;strokeWidth=1;fontFamily=Verdana;fontSize=8;align=center;" vertex="1" parent="1">
          <mxGeometry x="70" y="40" width="1110" height="800" as="geometry" />
        </mxCell>
        <mxCell id="77e6c97f196da883-2" value="画面" style="swimlane;html=1;startSize=20;" vertex="1" parent="77e6c97f196da883-1">
          <mxGeometry y="20" width="160" height="780" as="geometry" />
        </mxCell>
        <mxCell id="rWxOKQJItMxX4jM4pSMB-3" value="ログイン" style="rounded=1;whiteSpace=wrap;html=1;shadow=0;labelBackgroundColor=none;strokeWidth=1;fontFamily=Verdana;fontSize=8;align=center;" vertex="1" parent="77e6c97f196da883-2">
          <mxGeometry x="20" y="53" width="100" height="60" as="geometry" />
        </mxCell>
        <mxCell id="rWxOKQJItMxX4jM4pSMB-20" value="DashBoard" style="rounded=1;whiteSpace=wrap;html=1;shadow=0;labelBackgroundColor=none;strokeWidth=1;fontFamily=Verdana;fontSize=8;align=center;" vertex="1" parent="77e6c97f196da883-2">
          <mxGeometry x="20" y="328" width="100" height="60" as="geometry" />
        </mxCell>
        <mxCell id="rWxOKQJItMxX4jM4pSMB-30" value="位置検知＆通信" style="rounded=1;whiteSpace=wrap;html=1;shadow=0;labelBackgroundColor=none;strokeWidth=1;fontFamily=Verdana;fontSize=8;align=center;" vertex="1" parent="77e6c97f196da883-2">
          <mxGeometry x="20" y="177" width="100" height="60" as="geometry" />
        </mxCell>
        <mxCell id="rWxOKQJItMxX4jM4pSMB-33" value="投稿" style="rounded=1;whiteSpace=wrap;html=1;shadow=0;labelBackgroundColor=none;strokeWidth=1;fontFamily=Verdana;fontSize=8;align=center;" vertex="1" parent="77e6c97f196da883-2">
          <mxGeometry x="20" y="670" width="100" height="60" as="geometry" />
        </mxCell>
        <mxCell id="77e6c97f196da883-26" style="edgeStyle=orthogonalEdgeStyle;rounded=1;html=1;labelBackgroundColor=none;startArrow=none;startFill=0;startSize=5;endArrow=classicThin;endFill=1;endSize=5;jettySize=auto;orthogonalLoop=1;strokeWidth=1;fontFamily=Verdana;fontSize=8" edge="1" parent="77e6c97f196da883-1">
          <mxGeometry relative="1" as="geometry">
            <mxPoint x="120" y="115" as="sourcePoint" />
          </mxGeometry>
        </mxCell>
        <mxCell id="77e6c97f196da883-27" style="edgeStyle=orthogonalEdgeStyle;rounded=1;html=1;labelBackgroundColor=none;startArrow=none;startFill=0;startSize=5;endArrow=classicThin;endFill=1;endSize=5;jettySize=auto;orthogonalLoop=1;strokeWidth=1;fontFamily=Verdana;fontSize=8" edge="1" parent="77e6c97f196da883-1">
          <mxGeometry relative="1" as="geometry">
            <Array as="points">
              <mxPoint x="240" y="155" />
              <mxPoint x="70" y="155" />
            </Array>
            <mxPoint x="240" y="145" as="sourcePoint" />
          </mxGeometry>
        </mxCell>
        <mxCell id="77e6c97f196da883-30" style="edgeStyle=orthogonalEdgeStyle;rounded=1;html=1;labelBackgroundColor=none;startArrow=none;startFill=0;startSize=5;endArrow=classicThin;endFill=1;endSize=5;jettySize=auto;orthogonalLoop=1;strokeWidth=1;fontFamily=Verdana;fontSize=8;exitX=1;exitY=0.5;exitDx=0;exitDy=0;entryX=0;entryY=0.5;entryDx=0;entryDy=0;" edge="1" parent="77e6c97f196da883-1" source="rWxOKQJItMxX4jM4pSMB-3" target="rWxOKQJItMxX4jM4pSMB-4">
          <mxGeometry relative="1" as="geometry">
            <mxPoint x="70" y="202" as="targetPoint" />
          </mxGeometry>
        </mxCell>
        <mxCell id="77e6c97f196da883-31" style="edgeStyle=orthogonalEdgeStyle;rounded=1;html=1;labelBackgroundColor=none;startArrow=none;startFill=0;startSize=5;endArrow=classicThin;endFill=1;endSize=5;jettySize=auto;orthogonalLoop=1;strokeWidth=1;fontFamily=Verdana;fontSize=8;exitX=0;exitY=0.5;exitDx=0;exitDy=0;" edge="1" parent="77e6c97f196da883-1" source="77e6c97f196da883-16" target="rWxOKQJItMxX4jM4pSMB-8">
          <mxGeometry relative="1" as="geometry">
            <mxPoint x="620" y="487" as="sourcePoint" />
            <mxPoint x="500" y="487" as="targetPoint" />
            <Array as="points">
              <mxPoint x="570" y="350" />
              <mxPoint x="570" y="370" />
            </Array>
          </mxGeometry>
        </mxCell>
        <mxCell id="107ba76e4e335f99-1" style="edgeStyle=orthogonalEdgeStyle;rounded=1;html=1;labelBackgroundColor=none;startArrow=none;startFill=0;startSize=5;endArrow=classicThin;endFill=1;endSize=5;jettySize=auto;orthogonalLoop=1;strokeWidth=1;fontFamily=Verdana;fontSize=8" edge="1" parent="77e6c97f196da883-1">
          <mxGeometry relative="1" as="geometry">
            <mxPoint x="610" y="450" as="sourcePoint" />
          </mxGeometry>
        </mxCell>
        <mxCell id="77e6c97f196da883-3" value="フロントエンドAPI" style="swimlane;html=1;startSize=20;" vertex="1" parent="77e6c97f196da883-1">
          <mxGeometry x="160" y="20" width="210" height="780" as="geometry" />
        </mxCell>
        <mxCell id="rWxOKQJItMxX4jM4pSMB-4" value="ログインAPI" style="rounded=1;whiteSpace=wrap;html=1;shadow=0;labelBackgroundColor=none;strokeWidth=1;fontFamily=Verdana;fontSize=8;align=center;" vertex="1" parent="77e6c97f196da883-3">
          <mxGeometry x="30" y="53" width="100" height="60" as="geometry" />
        </mxCell>
        <mxCell id="rWxOKQJItMxX4jM4pSMB-19" value="配信タスク" style="rounded=1;whiteSpace=wrap;html=1;shadow=0;labelBackgroundColor=none;strokeWidth=1;fontFamily=Verdana;fontSize=8;align=center;" vertex="1" parent="77e6c97f196da883-3">
          <mxGeometry x="30" y="333" width="100" height="50" as="geometry" />
        </mxCell>
        <mxCell id="rWxOKQJItMxX4jM4pSMB-28" value="位置情報受信API" style="rounded=1;whiteSpace=wrap;html=1;shadow=0;labelBackgroundColor=none;strokeWidth=1;fontFamily=Verdana;fontSize=8;align=center;" vertex="1" parent="77e6c97f196da883-3">
          <mxGeometry x="30" y="177" width="100" height="60" as="geometry" />
        </mxCell>
        <mxCell id="rWxOKQJItMxX4jM4pSMB-31" style="edgeStyle=orthogonalEdgeStyle;rounded=1;html=1;labelBackgroundColor=none;startArrow=none;startFill=0;startSize=5;endArrow=classicThin;endFill=1;endSize=5;jettySize=auto;orthogonalLoop=1;strokeWidth=1;fontFamily=Verdana;fontSize=8;entryX=0;entryY=0.5;entryDx=0;entryDy=0;" edge="1" parent="77e6c97f196da883-3" target="rWxOKQJItMxX4jM4pSMB-2">
          <mxGeometry relative="1" as="geometry">
            <mxPoint x="130" y="207" as="sourcePoint" />
            <mxPoint x="180" y="77" as="targetPoint" />
            <Array as="points">
              <mxPoint x="181" y="207" />
              <mxPoint x="181" y="83" />
            </Array>
          </mxGeometry>
        </mxCell>
        <mxCell id="rWxOKQJItMxX4jM4pSMB-34" value="投稿API" style="rounded=1;whiteSpace=wrap;html=1;shadow=0;labelBackgroundColor=none;strokeWidth=1;fontFamily=Verdana;fontSize=8;align=center;" vertex="1" parent="77e6c97f196da883-3">
          <mxGeometry x="40" y="675" width="100" height="50" as="geometry" />
        </mxCell>
        <mxCell id="rWxOKQJItMxX4jM4pSMB-23" value="ユーザー" style="shape=cylinder3;whiteSpace=wrap;html=1;boundedLbl=1;backgroundOutline=1;size=15;dashed=1;" vertex="1" parent="77e6c97f196da883-3">
          <mxGeometry x="45" y="571" width="70" height="79" as="geometry" />
        </mxCell>
        <mxCell id="rWxOKQJItMxX4jM4pSMB-27" style="edgeStyle=orthogonalEdgeStyle;rounded=1;html=1;labelBackgroundColor=none;startArrow=none;startFill=0;startSize=5;endArrow=classicThin;endFill=1;endSize=5;jettySize=auto;orthogonalLoop=1;strokeWidth=1;fontFamily=Verdana;fontSize=8;entryX=0.5;entryY=1;entryDx=0;entryDy=0;exitX=0.5;exitY=0;exitDx=0;exitDy=0;exitPerimeter=0;" edge="1" parent="77e6c97f196da883-3" source="rWxOKQJItMxX4jM4pSMB-23" target="rWxOKQJItMxX4jM4pSMB-19">
          <mxGeometry relative="1" as="geometry">
            <mxPoint x="250" y="472" as="sourcePoint" />
            <mxPoint x="142" y="472" as="targetPoint" />
            <Array as="points">
              <mxPoint x="80" y="520" />
            </Array>
          </mxGeometry>
        </mxCell>
        <mxCell id="rWxOKQJItMxX4jM4pSMB-55" value="配信タスク" style="rounded=1;whiteSpace=wrap;html=1;shadow=0;labelBackgroundColor=none;strokeWidth=1;fontFamily=Verdana;fontSize=8;align=center;" vertex="1" parent="77e6c97f196da883-3">
          <mxGeometry x="90" y="420" width="100" height="50" as="geometry" />
        </mxCell>
        <mxCell id="rWxOKQJItMxX4jM4pSMB-56" value="配信タスク" style="rounded=1;whiteSpace=wrap;html=1;shadow=0;labelBackgroundColor=none;strokeWidth=1;fontFamily=Verdana;fontSize=8;align=center;" vertex="1" parent="77e6c97f196da883-3">
          <mxGeometry x="90" y="510" width="100" height="50" as="geometry" />
        </mxCell>
        <mxCell id="77e6c97f196da883-4" value="メッセージ・キュー" style="swimlane;html=1;startSize=20;" vertex="1" parent="77e6c97f196da883-1">
          <mxGeometry x="370" y="20" width="180" height="780" as="geometry" />
        </mxCell>
        <mxCell id="rWxOKQJItMxX4jM4pSMB-2" value="セッション&lt;div&gt;キュー&lt;/div&gt;" style="shape=dataStorage;whiteSpace=wrap;html=1;fixedSize=1;" vertex="1" parent="77e6c97f196da883-4">
          <mxGeometry x="23" y="43" width="100" height="80" as="geometry" />
        </mxCell>
        <mxCell id="rWxOKQJItMxX4jM4pSMB-8" value="位置&lt;div&gt;&lt;span style=&quot;background-color: initial;&quot;&gt;メッセージ&lt;/span&gt;&lt;/div&gt;" style="shape=dataStorage;whiteSpace=wrap;html=1;fixedSize=1;" vertex="1" parent="77e6c97f196da883-4">
          <mxGeometry x="33" y="328" width="100" height="60" as="geometry" />
        </mxCell>
        <mxCell id="rWxOKQJItMxX4jM4pSMB-16" value="位置&lt;div&gt;メッセージ&lt;/div&gt;" style="shape=dataStorage;whiteSpace=wrap;html=1;fixedSize=1;" vertex="1" parent="77e6c97f196da883-4">
          <mxGeometry x="33" y="415" width="100" height="60" as="geometry" />
        </mxCell>
        <mxCell id="rWxOKQJItMxX4jM4pSMB-17" value="位置&lt;div&gt;メッセージ&lt;/div&gt;" style="shape=dataStorage;whiteSpace=wrap;html=1;fixedSize=1;" vertex="1" parent="77e6c97f196da883-4">
          <mxGeometry x="30" y="505" width="100" height="60" as="geometry" />
        </mxCell>
        <mxCell id="rWxOKQJItMxX4jM4pSMB-36" value="位置&lt;div&gt;メッセージ&lt;/div&gt;&lt;div&gt;（登録）&lt;/div&gt;" style="shape=dataStorage;whiteSpace=wrap;html=1;fixedSize=1;" vertex="1" parent="77e6c97f196da883-4">
          <mxGeometry x="29" y="670" width="100" height="60" as="geometry" />
        </mxCell>
        <mxCell id="77e6c97f196da883-5" value="メッセージ処理API" style="swimlane;html=1;startSize=20;" vertex="1" parent="77e6c97f196da883-1">
          <mxGeometry x="550" y="20" width="190" height="780" as="geometry" />
        </mxCell>
        <mxCell id="77e6c97f196da883-16" value="位置判定" style="rhombus;whiteSpace=wrap;html=1;rounded=0;shadow=0;labelBackgroundColor=none;strokeWidth=1;fontFamily=Verdana;fontSize=8;align=center;" vertex="1" parent="77e6c97f196da883-5">
          <mxGeometry x="60" y="300" width="80" height="60" as="geometry" />
        </mxCell>
        <mxCell id="rWxOKQJItMxX4jM4pSMB-10" value="登録メッセージ&lt;span style=&quot;background-color: initial;&quot;&gt;配信&lt;/span&gt;&lt;div&gt;&lt;span style=&quot;background-color: initial;&quot;&gt;初期化&lt;/span&gt;&lt;/div&gt;" style="rounded=1;whiteSpace=wrap;html=1;shadow=0;labelBackgroundColor=none;strokeWidth=1;fontFamily=Verdana;fontSize=8;align=center;" vertex="1" parent="77e6c97f196da883-5">
          <mxGeometry x="50" y="190" width="100" height="60" as="geometry" />
        </mxCell>
        <mxCell id="rWxOKQJItMxX4jM4pSMB-38" value="位置・登録判定" style="rhombus;whiteSpace=wrap;html=1;rounded=0;shadow=0;labelBackgroundColor=none;strokeWidth=1;fontFamily=Verdana;fontSize=8;align=center;" vertex="1" parent="77e6c97f196da883-5">
          <mxGeometry x="60" y="579" width="80" height="60" as="geometry" />
        </mxCell>
        <mxCell id="rWxOKQJItMxX4jM4pSMB-49" style="edgeStyle=orthogonalEdgeStyle;rounded=1;html=1;labelBackgroundColor=none;startArrow=none;startFill=0;startSize=5;endArrow=classicThin;endFill=1;endSize=5;jettySize=auto;orthogonalLoop=1;strokeWidth=1;fontFamily=Verdana;fontSize=8;entryX=0.5;entryY=0;entryDx=0;entryDy=0;exitX=0.5;exitY=1;exitDx=0;exitDy=0;" edge="1" parent="77e6c97f196da883-5" source="rWxOKQJItMxX4jM4pSMB-10" target="77e6c97f196da883-16">
          <mxGeometry relative="1" as="geometry">
            <mxPoint x="240" y="230" as="sourcePoint" />
            <mxPoint x="160" y="230" as="targetPoint" />
          </mxGeometry>
        </mxCell>
        <mxCell id="rWxOKQJItMxX4jM4pSMB-53" value="登録メッセージ配信" style="rounded=1;whiteSpace=wrap;html=1;shadow=0;labelBackgroundColor=none;strokeWidth=1;fontFamily=Verdana;fontSize=8;align=center;" vertex="1" parent="77e6c97f196da883-5">
          <mxGeometry x="50" y="670" width="100" height="60" as="geometry" />
        </mxCell>
        <mxCell id="rWxOKQJItMxX4jM4pSMB-54" style="edgeStyle=orthogonalEdgeStyle;rounded=1;html=1;labelBackgroundColor=none;startArrow=none;startFill=0;startSize=5;endArrow=classicThin;endFill=1;endSize=5;jettySize=auto;orthogonalLoop=1;strokeWidth=1;fontFamily=Verdana;fontSize=8;exitX=0.5;exitY=0;exitDx=0;exitDy=0;entryX=0.5;entryY=1;entryDx=0;entryDy=0;" edge="1" parent="77e6c97f196da883-5" source="rWxOKQJItMxX4jM4pSMB-53" target="rWxOKQJItMxX4jM4pSMB-38">
          <mxGeometry relative="1" as="geometry">
            <mxPoint x="100" y="668" as="sourcePoint" />
            <mxPoint x="-50" y="639" as="targetPoint" />
          </mxGeometry>
        </mxCell>
        <mxCell id="rWxOKQJItMxX4jM4pSMB-1" value="" style="edgeStyle=orthogonalEdgeStyle;rounded=0;orthogonalLoop=1;jettySize=auto;html=1;entryX=1;entryY=0.5;entryDx=0;entryDy=0;" edge="1" parent="77e6c97f196da883-1">
          <mxGeometry relative="1" as="geometry">
            <mxPoint x="450" y="205" as="targetPoint" />
          </mxGeometry>
        </mxCell>
        <mxCell id="rWxOKQJItMxX4jM4pSMB-5" style="edgeStyle=orthogonalEdgeStyle;rounded=1;html=1;labelBackgroundColor=none;startArrow=none;startFill=0;startSize=5;endArrow=classicThin;endFill=1;endSize=5;jettySize=auto;orthogonalLoop=1;strokeWidth=1;fontFamily=Verdana;fontSize=8;exitX=1;exitY=0.5;exitDx=0;exitDy=0;" edge="1" parent="77e6c97f196da883-1" source="rWxOKQJItMxX4jM4pSMB-4">
          <mxGeometry relative="1" as="geometry">
            <mxPoint x="130" y="107" as="sourcePoint" />
            <mxPoint x="390" y="103" as="targetPoint" />
          </mxGeometry>
        </mxCell>
        <mxCell id="rWxOKQJItMxX4jM4pSMB-9" style="edgeStyle=orthogonalEdgeStyle;rounded=1;html=1;labelBackgroundColor=none;startArrow=none;startFill=0;startSize=5;endArrow=classicThin;endFill=1;endSize=5;jettySize=auto;orthogonalLoop=1;strokeWidth=1;fontFamily=Verdana;fontSize=8;exitX=0.5;exitY=1;exitDx=0;exitDy=0;" edge="1" parent="77e6c97f196da883-1" source="rWxOKQJItMxX4jM4pSMB-2" target="rWxOKQJItMxX4jM4pSMB-19">
          <mxGeometry relative="1" as="geometry">
            <mxPoint x="560" y="107" as="sourcePoint" />
            <mxPoint x="690" y="118" as="targetPoint" />
            <Array as="points">
              <mxPoint x="443" y="307" />
              <mxPoint x="240" y="307" />
            </Array>
          </mxGeometry>
        </mxCell>
        <mxCell id="77e6c97f196da883-35" style="edgeStyle=orthogonalEdgeStyle;rounded=1;html=1;labelBackgroundColor=none;startArrow=none;startFill=0;startSize=5;endArrow=classicThin;endFill=1;endSize=5;jettySize=auto;orthogonalLoop=1;strokeWidth=1;fontFamily=Verdana;fontSize=8;exitX=0;exitY=0.5;exitDx=0;exitDy=0;" edge="1" parent="77e6c97f196da883-1" source="77e6c97f196da883-16" target="rWxOKQJItMxX4jM4pSMB-16">
          <mxGeometry relative="1" as="geometry">
            <mxPoint x="620" y="467" as="sourcePoint" />
            <mxPoint x="560" y="387" as="targetPoint" />
            <Array as="points">
              <mxPoint x="570" y="350" />
              <mxPoint x="570" y="460" />
            </Array>
          </mxGeometry>
        </mxCell>
        <mxCell id="rWxOKQJItMxX4jM4pSMB-18" style="edgeStyle=orthogonalEdgeStyle;rounded=1;html=1;labelBackgroundColor=none;startArrow=none;startFill=0;startSize=5;endArrow=classicThin;endFill=1;endSize=5;jettySize=auto;orthogonalLoop=1;strokeWidth=1;fontFamily=Verdana;fontSize=8;exitX=0;exitY=0.5;exitDx=0;exitDy=0;" edge="1" parent="77e6c97f196da883-1" source="77e6c97f196da883-16">
          <mxGeometry relative="1" as="geometry">
            <mxPoint x="640" y="597" as="sourcePoint" />
            <mxPoint x="500" y="550" as="targetPoint" />
            <Array as="points">
              <mxPoint x="570" y="350" />
              <mxPoint x="570" y="550" />
              <mxPoint x="500" y="550" />
            </Array>
          </mxGeometry>
        </mxCell>
        <mxCell id="rWxOKQJItMxX4jM4pSMB-7" style="edgeStyle=orthogonalEdgeStyle;rounded=1;html=1;labelBackgroundColor=none;startArrow=none;startFill=0;startSize=5;endArrow=classicThin;endFill=1;endSize=5;jettySize=auto;orthogonalLoop=1;strokeWidth=1;fontFamily=Verdana;fontSize=8;entryX=0;entryY=0.5;entryDx=0;entryDy=0;entryPerimeter=0;" edge="1" parent="77e6c97f196da883-1" source="rWxOKQJItMxX4jM4pSMB-2" target="rWxOKQJItMxX4jM4pSMB-6">
          <mxGeometry relative="1" as="geometry">
            <mxPoint x="560" y="107" as="sourcePoint" />
            <mxPoint x="347" y="107" as="targetPoint" />
          </mxGeometry>
        </mxCell>
        <mxCell id="rWxOKQJItMxX4jM4pSMB-21" style="edgeStyle=orthogonalEdgeStyle;rounded=1;html=1;labelBackgroundColor=none;startArrow=none;startFill=0;startSize=5;endArrow=classicThin;endFill=1;endSize=5;jettySize=auto;orthogonalLoop=1;strokeWidth=1;fontFamily=Verdana;fontSize=8;entryX=1;entryY=0.5;entryDx=0;entryDy=0;exitX=0;exitY=0.5;exitDx=0;exitDy=0;" edge="1" parent="77e6c97f196da883-1" source="rWxOKQJItMxX4jM4pSMB-8" target="rWxOKQJItMxX4jM4pSMB-19">
          <mxGeometry relative="1" as="geometry">
            <mxPoint x="341" y="340" as="sourcePoint" />
            <mxPoint x="389.5" y="357" as="targetPoint" />
          </mxGeometry>
        </mxCell>
        <mxCell id="rWxOKQJItMxX4jM4pSMB-22" style="edgeStyle=orthogonalEdgeStyle;rounded=1;html=1;labelBackgroundColor=none;startArrow=none;startFill=0;startSize=5;endArrow=classicThin;endFill=1;endSize=5;jettySize=auto;orthogonalLoop=1;strokeWidth=1;fontFamily=Verdana;fontSize=8;entryX=1;entryY=0.5;entryDx=0;entryDy=0;exitX=0;exitY=0.5;exitDx=0;exitDy=0;" edge="1" parent="77e6c97f196da883-1" source="rWxOKQJItMxX4jM4pSMB-19" target="rWxOKQJItMxX4jM4pSMB-20">
          <mxGeometry relative="1" as="geometry">
            <mxPoint x="351" y="350" as="sourcePoint" />
            <mxPoint x="302" y="350" as="targetPoint" />
          </mxGeometry>
        </mxCell>
        <mxCell id="rWxOKQJItMxX4jM4pSMB-29" style="edgeStyle=orthogonalEdgeStyle;rounded=1;html=1;labelBackgroundColor=none;startArrow=none;startFill=0;startSize=5;endArrow=classicThin;endFill=1;endSize=5;jettySize=auto;orthogonalLoop=1;strokeWidth=1;fontFamily=Verdana;fontSize=8;exitX=1;exitY=0.5;exitDx=0;exitDy=0;entryX=0;entryY=0.5;entryDx=0;entryDy=0;" edge="1" parent="77e6c97f196da883-1" source="rWxOKQJItMxX4jM4pSMB-30" target="rWxOKQJItMxX4jM4pSMB-28">
          <mxGeometry relative="1" as="geometry">
            <mxPoint x="130" y="107" as="sourcePoint" />
            <mxPoint x="200" y="107" as="targetPoint" />
          </mxGeometry>
        </mxCell>
        <mxCell id="rWxOKQJItMxX4jM4pSMB-35" style="edgeStyle=orthogonalEdgeStyle;rounded=1;html=1;labelBackgroundColor=none;startArrow=none;startFill=0;startSize=5;endArrow=classicThin;endFill=1;endSize=5;jettySize=auto;orthogonalLoop=1;strokeWidth=1;fontFamily=Verdana;fontSize=8;entryX=0;entryY=0.5;entryDx=0;entryDy=0;exitX=1;exitY=0.5;exitDx=0;exitDy=0;" edge="1" parent="77e6c97f196da883-1" source="rWxOKQJItMxX4jM4pSMB-33" target="rWxOKQJItMxX4jM4pSMB-34">
          <mxGeometry relative="1" as="geometry">
            <mxPoint x="200" y="417" as="sourcePoint" />
            <mxPoint x="130" y="417" as="targetPoint" />
          </mxGeometry>
        </mxCell>
        <mxCell id="rWxOKQJItMxX4jM4pSMB-37" style="edgeStyle=orthogonalEdgeStyle;rounded=1;html=1;labelBackgroundColor=none;startArrow=none;startFill=0;startSize=5;endArrow=classicThin;endFill=1;endSize=5;jettySize=auto;orthogonalLoop=1;strokeWidth=1;fontFamily=Verdana;fontSize=8;entryX=0;entryY=0.5;entryDx=0;entryDy=0;exitX=1;exitY=0.5;exitDx=0;exitDy=0;" edge="1" parent="77e6c97f196da883-1" source="rWxOKQJItMxX4jM4pSMB-34" target="rWxOKQJItMxX4jM4pSMB-36">
          <mxGeometry relative="1" as="geometry">
            <mxPoint x="130" y="710" as="sourcePoint" />
            <mxPoint x="210" y="710" as="targetPoint" />
          </mxGeometry>
        </mxCell>
        <mxCell id="rWxOKQJItMxX4jM4pSMB-39" style="edgeStyle=orthogonalEdgeStyle;rounded=1;html=1;labelBackgroundColor=none;startArrow=none;startFill=0;startSize=5;endArrow=classicThin;endFill=1;endSize=5;jettySize=auto;orthogonalLoop=1;strokeWidth=1;fontFamily=Verdana;fontSize=8;entryX=0;entryY=0.5;entryDx=0;entryDy=0;exitX=1;exitY=0.5;exitDx=0;exitDy=0;" edge="1" parent="77e6c97f196da883-1" source="rWxOKQJItMxX4jM4pSMB-36" target="rWxOKQJItMxX4jM4pSMB-53">
          <mxGeometry relative="1" as="geometry">
            <mxPoint x="310" y="710" as="sourcePoint" />
            <mxPoint x="409" y="710" as="targetPoint" />
          </mxGeometry>
        </mxCell>
        <mxCell id="rWxOKQJItMxX4jM4pSMB-41" style="edgeStyle=orthogonalEdgeStyle;rounded=1;html=1;labelBackgroundColor=none;startArrow=none;startFill=0;startSize=5;endArrow=classicThin;endFill=1;endSize=5;jettySize=auto;orthogonalLoop=1;strokeWidth=1;fontFamily=Verdana;fontSize=8;exitX=1;exitY=0.5;exitDx=0;exitDy=0;entryX=0.5;entryY=1;entryDx=0;entryDy=0;entryPerimeter=0;" edge="1" parent="77e6c97f196da883-1" source="rWxOKQJItMxX4jM4pSMB-38" target="rWxOKQJItMxX4jM4pSMB-11">
          <mxGeometry relative="1" as="geometry">
            <mxPoint x="509" y="710" as="sourcePoint" />
            <mxPoint x="780" y="698.5" as="targetPoint" />
          </mxGeometry>
        </mxCell>
        <mxCell id="77e6c97f196da883-6" value="データベース" style="swimlane;html=1;startSize=20;" vertex="1" parent="77e6c97f196da883-1">
          <mxGeometry x="740" y="20" width="160" height="780" as="geometry" />
        </mxCell>
        <mxCell id="rWxOKQJItMxX4jM4pSMB-6" value="集計・分析" style="shape=cylinder3;whiteSpace=wrap;html=1;boundedLbl=1;backgroundOutline=1;size=15;" vertex="1" parent="77e6c97f196da883-6">
          <mxGeometry x="45" y="44" width="70" height="79" as="geometry" />
        </mxCell>
        <mxCell id="rWxOKQJItMxX4jM4pSMB-11" value="登録&lt;div&gt;メッセージ&lt;/div&gt;" style="shape=cylinder3;whiteSpace=wrap;html=1;boundedLbl=1;backgroundOutline=1;size=15;" vertex="1" parent="77e6c97f196da883-6">
          <mxGeometry x="40" y="180" width="70" height="79" as="geometry" />
        </mxCell>
        <mxCell id="77e6c97f196da883-7" value="マスターデータ" style="swimlane;html=1;startSize=20;" vertex="1" parent="77e6c97f196da883-1">
          <mxGeometry x="900" y="20" width="160" height="780" as="geometry" />
        </mxCell>
        <mxCell id="rWxOKQJItMxX4jM4pSMB-46" value="ユーザー" style="shape=cylinder3;whiteSpace=wrap;html=1;boundedLbl=1;backgroundOutline=1;size=15;" vertex="1" parent="77e6c97f196da883-7">
          <mxGeometry x="45" y="43" width="70" height="79" as="geometry" />
        </mxCell>
        <mxCell id="rWxOKQJItMxX4jM4pSMB-48" style="edgeStyle=orthogonalEdgeStyle;rounded=1;html=1;labelBackgroundColor=none;startArrow=none;startFill=0;startSize=5;endArrow=classicThin;endFill=1;endSize=5;jettySize=auto;orthogonalLoop=1;strokeWidth=1;fontFamily=Verdana;fontSize=8;entryX=1;entryY=0.5;entryDx=0;entryDy=0;exitX=0;exitY=0.5;exitDx=0;exitDy=0;exitPerimeter=0;" edge="1" parent="77e6c97f196da883-1" source="rWxOKQJItMxX4jM4pSMB-11" target="rWxOKQJItMxX4jM4pSMB-10">
          <mxGeometry relative="1" as="geometry">
            <mxPoint x="503" y="113" as="sourcePoint" />
            <mxPoint x="795" y="114" as="targetPoint" />
          </mxGeometry>
        </mxCell>
        <mxCell id="rWxOKQJItMxX4jM4pSMB-50" style="edgeStyle=orthogonalEdgeStyle;rounded=1;html=1;labelBackgroundColor=none;startArrow=none;startFill=0;startSize=5;endArrow=classicThin;endFill=1;endSize=5;jettySize=auto;orthogonalLoop=1;strokeWidth=1;fontFamily=Verdana;fontSize=8;exitX=0.5;exitY=0;exitDx=0;exitDy=0;entryX=1;entryY=0.75;entryDx=0;entryDy=0;" edge="1" parent="77e6c97f196da883-1" source="rWxOKQJItMxX4jM4pSMB-38" target="rWxOKQJItMxX4jM4pSMB-17">
          <mxGeometry relative="1" as="geometry">
            <mxPoint x="509" y="765" as="sourcePoint" />
            <mxPoint x="640" y="570" as="targetPoint" />
          </mxGeometry>
        </mxCell>
        <mxCell id="rWxOKQJItMxX4jM4pSMB-51" style="edgeStyle=orthogonalEdgeStyle;rounded=1;html=1;labelBackgroundColor=none;startArrow=none;startFill=0;startSize=5;endArrow=classicThin;endFill=1;endSize=5;jettySize=auto;orthogonalLoop=1;strokeWidth=1;fontFamily=Verdana;fontSize=8;exitX=0.5;exitY=0;exitDx=0;exitDy=0;entryX=1;entryY=0.75;entryDx=0;entryDy=0;" edge="1" parent="77e6c97f196da883-1" source="rWxOKQJItMxX4jM4pSMB-38" target="rWxOKQJItMxX4jM4pSMB-16">
          <mxGeometry relative="1" as="geometry">
            <mxPoint x="660" y="683" as="sourcePoint" />
            <mxPoint x="510" y="565" as="targetPoint" />
          </mxGeometry>
        </mxCell>
        <mxCell id="rWxOKQJItMxX4jM4pSMB-52" style="edgeStyle=orthogonalEdgeStyle;rounded=1;html=1;labelBackgroundColor=none;startArrow=none;startFill=0;startSize=5;endArrow=classicThin;endFill=1;endSize=5;jettySize=auto;orthogonalLoop=1;strokeWidth=1;fontFamily=Verdana;fontSize=8;exitX=0.5;exitY=0;exitDx=0;exitDy=0;entryX=1;entryY=0.75;entryDx=0;entryDy=0;" edge="1" parent="77e6c97f196da883-1" source="rWxOKQJItMxX4jM4pSMB-38" target="rWxOKQJItMxX4jM4pSMB-8">
          <mxGeometry relative="1" as="geometry">
            <mxPoint x="660" y="683" as="sourcePoint" />
            <mxPoint x="510" y="400" as="targetPoint" />
            <Array as="points">
              <mxPoint x="650" y="393" />
            </Array>
          </mxGeometry>
        </mxCell>
        <mxCell id="rWxOKQJItMxX4jM4pSMB-57" style="edgeStyle=orthogonalEdgeStyle;rounded=1;html=1;labelBackgroundColor=none;startArrow=none;startFill=0;startSize=5;endArrow=classicThin;endFill=1;endSize=5;jettySize=auto;orthogonalLoop=1;strokeWidth=1;fontFamily=Verdana;fontSize=8;entryX=1;entryY=0.5;entryDx=0;entryDy=0;exitX=0;exitY=0.5;exitDx=0;exitDy=0;" edge="1" parent="77e6c97f196da883-1" source="rWxOKQJItMxX4jM4pSMB-16" target="rWxOKQJItMxX4jM4pSMB-55">
          <mxGeometry relative="1" as="geometry">
            <mxPoint x="413" y="388" as="sourcePoint" />
            <mxPoint x="300" y="417" as="targetPoint" />
          </mxGeometry>
        </mxCell>
        <mxCell id="rWxOKQJItMxX4jM4pSMB-58" style="edgeStyle=orthogonalEdgeStyle;rounded=1;html=1;labelBackgroundColor=none;startArrow=none;startFill=0;startSize=5;endArrow=classicThin;endFill=1;endSize=5;jettySize=auto;orthogonalLoop=1;strokeWidth=1;fontFamily=Verdana;fontSize=8;entryX=1;entryY=0.5;entryDx=0;entryDy=0;exitX=0;exitY=0.5;exitDx=0;exitDy=0;" edge="1" parent="77e6c97f196da883-1" source="rWxOKQJItMxX4jM4pSMB-17" target="rWxOKQJItMxX4jM4pSMB-56">
          <mxGeometry relative="1" as="geometry">
            <mxPoint x="413" y="475" as="sourcePoint" />
            <mxPoint x="360" y="475" as="targetPoint" />
          </mxGeometry>
        </mxCell>
      </root>
    </mxGraphModel>
  </diagram>
</mxfile>
